<svg width="18" height="21" viewBox="0 0 18 21" fill="none" xmlns="http://www.w3.org/2000/svg">
<path d="M16 7.95204L9 2L2 7.95204V18.0013H6V14.218C6 13.1134 6.89543 12.218 8 12.218H10.0029C11.1075 12.218 12.0029 13.1134 12.0029 14.218V18.0013H16V7.95204Z" fill="white"/>
<path d="M8 18.0013H10.0029V14.218L8 14.218V18.0013Z" fill="white"/>
<path fill-rule="evenodd" clip-rule="evenodd" d="M7.70445 0.47634C8.45139 -0.15878 9.54861 -0.15878 10.2956 0.47634L17.2956 6.42838C17.7425 6.80837 18 7.36542 18 7.95204V18.0013C18 19.1059 17.1046 20.0013 16 20.0013H2C0.895431 20.0013 0 19.1059 0 18.0013V7.95204C0 7.36542 0.257541 6.80837 0.704446 6.42838L7.70445 0.47634ZM16 7.95204L9 2L2 7.95204V18.0013H6V20H8V18.0013H10.0029L10 20H12V18.0013H12.0029H16V7.95204Z" fill="white"/>
</svg>
