<svg width="25" height="25" viewBox="0 0 25 25" fill="none" xmlns="http://www.w3.org/2000/svg">
<path fill-rule="evenodd" clip-rule="evenodd" d="M12.5 20.625C16.9183 20.625 20.5 17.0433 20.5 12.625C20.5 8.20672 16.9183 4.625 12.5 4.625C8.08172 4.625 4.5 8.20672 4.5 12.625C4.5 17.0433 8.08172 20.625 12.5 20.625ZM11.7719 8.91532C12.1639 9.30442 12.1662 9.93758 11.7771 10.3295L10.535 11.5806L16.5014 11.5806C17.0536 11.5806 17.5014 12.0284 17.5014 12.5806C17.5014 13.1329 17.0536 13.5806 16.5014 13.5806L10.447 13.5806L11.7771 14.9205C12.1662 15.3124 12.1639 15.9456 11.7719 16.3347C11.38 16.7238 10.7468 16.7215 10.3577 16.3295L8.0789 14.034C7.30471 13.2542 7.30471 11.9958 8.0789 11.216L10.3577 8.92048C10.7468 8.52853 11.38 8.52622 11.7719 8.91532Z" fill="white"/>
<path fill-rule="evenodd" clip-rule="evenodd" d="M12.5 20.625C16.9183 20.625 20.5 17.0433 20.5 12.625C20.5 8.20672 16.9183 4.625 12.5 4.625C8.08172 4.625 4.5 8.20672 4.5 12.625C4.5 17.0433 8.08172 20.625 12.5 20.625ZM12.5 22.625C18.0228 22.625 22.5 18.1478 22.5 12.625C22.5 7.10215 18.0228 2.625 12.5 2.625C6.97715 2.625 2.5 7.10215 2.5 12.625C2.5 18.1478 6.97715 22.625 12.5 22.625Z" fill="white"/>
</svg>
