<svg width="25" height="25" viewBox="0 0 25 25" fill="none" xmlns="http://www.w3.org/2000/svg">
<path fill-rule="evenodd" clip-rule="evenodd" d="M12.5 20.625C8.08172 20.625 4.5 17.0433 4.5 12.625C4.5 8.20672 8.08172 4.625 12.5 4.625C16.9183 4.625 20.5 8.20672 20.5 12.625C20.5 17.0433 16.9183 20.625 12.5 20.625ZM13.2281 8.91532C12.8361 9.30442 12.8338 9.93758 13.2229 10.3295L14.465 11.5806L8.49864 11.5806C7.94636 11.5806 7.49864 12.0284 7.49864 12.5806C7.49864 13.1329 7.94636 13.5806 8.49864 13.5806L14.553 13.5806L13.2229 14.9205C12.8338 15.3124 12.8361 15.9456 13.2281 16.3347C13.62 16.7238 14.2532 16.7215 14.6423 16.3295L16.9211 14.034C17.6953 13.2542 17.6953 11.9958 16.9211 11.216L14.6423 8.92048C14.2532 8.52853 13.62 8.52622 13.2281 8.91532Z" fill="white"/>
<path fill-rule="evenodd" clip-rule="evenodd" d="M12.5 20.625C8.08172 20.625 4.5 17.0433 4.5 12.625C4.5 8.20672 8.08172 4.625 12.5 4.625C16.9183 4.625 20.5 8.20672 20.5 12.625C20.5 17.0433 16.9183 20.625 12.5 20.625ZM12.5 22.625C6.97715 22.625 2.5 18.1478 2.5 12.625C2.5 7.10215 6.97715 2.625 12.5 2.625C18.0228 2.625 22.5 7.10215 22.5 12.625C22.5 18.1478 18.0228 22.625 12.5 22.625Z" fill="white"/>
</svg>
