<svg width="24" height="24" viewBox="0 0 24 24" fill="none" xmlns="http://www.w3.org/2000/svg">
<path fill-rule="evenodd" clip-rule="evenodd" d="M2.4029 2.19787C2.71901 1.96254 3.14385 1.93482 3.48786 2.12706L20.4879 11.6271C20.8458 11.8271 21.0454 12.2254 20.9913 12.6319C20.9372 13.0384 20.6404 13.3707 20.2426 13.4701L12.5804 15.3857L7.79267 21.6097C7.5559 21.9175 7.16235 22.0604 6.78326 21.9762C6.40417 21.892 6.10809 21.596 6.02385 21.2169L2.02385 3.21693C1.93836 2.83223 2.08679 2.4332 2.4029 2.19787ZM4.46035 4.96161L7.51205 18.6943L11.2074 13.8903C11.3449 13.7116 11.5388 13.5845 11.7575 13.5299L17.3093 12.1419L4.46035 4.96161Z" fill="#ECF0FF"/>
<path d="M7.51205 18.6943L4.46035 4.96161L17.3093 12.1419L11.7575 13.5299C11.5388 13.5845 11.3449 13.7116 11.2074 13.8903L7.51205 18.6943Z" fill="#ECF0FF"/>
</svg>
